<?xml version="1.0" standalone="no"?>
<!DOCTYPE svg PUBLIC "-//W3C//DTD SVG 20010904//EN"
 "http://www.w3.org/TR/2001/REC-SVG-20010904/DTD/svg10.dtd">
<svg version="1.0" xmlns="http://www.w3.org/2000/svg"
 width="640.000000pt" height="640.000000pt" viewBox="0 0 640.000000 640.000000"
 preserveAspectRatio="xMidYMid meet">

<g transform="translate(0.000000,640.000000) scale(0.100000,-0.100000)"
fill="#000000" stroke="none">
<path d="M1394 5708 c-56 -68 -86 -168 -109 -375 -47 -414 -46 -716 4 -1225
17 -167 35 -357 41 -423 13 -138 14 -145 35 -145 18 0 17 -7 5 100 -5 47 -16
162 -25 255 -9 94 -22 226 -30 295 -15 129 -35 429 -35 536 l0 60 183 0 c145
0 195 3 247 18 119 33 203 86 236 148 32 62 5 243 -55 373 -54 116 -242 340
-326 389 -31 19 -58 26 -93 26 -44 0 -53 -4 -78 -32z m140 -18 c51 -24 143
-118 232 -235 99 -132 145 -244 159 -395 6 -58 4 -69 -17 -100 -32 -47 -90
-84 -173 -112 -63 -21 -89 -23 -252 -23 -108 0 -186 4 -191 10 -19 20 28 594
57 690 18 61 45 121 68 153 28 38 58 41 117 12z"/>
<path d="M2360 5463 c0 -443 -45 -1250 -80 -1440 -24 -129 -54 -249 -81 -321
-23 -63 -24 -92 -5 -92 25 0 94 248 124 445 37 234 72 911 72 1368 0 266 -2
307 -15 307 -13 0 -15 -36 -15 -267z"/>
<path d="M4644 5413 c-44 -46 -57 -89 -57 -188 -1 -112 30 -207 182 -561 17
-40 40 -112 52 -160 18 -77 19 -98 10 -161 -15 -99 -64 -213 -119 -274 -38
-42 -72 -63 -236 -143 -194 -95 -287 -158 -254 -171 10 -4 34 7 66 29 27 20
124 72 216 116 199 95 249 136 301 247 74 155 83 260 35 423 -17 56 -41 123
-54 149 -37 73 -134 321 -151 386 -17 67 -20 163 -5 216 5 19 23 48 39 63 28
27 34 29 96 24 51 -5 88 -16 161 -52 101 -48 124 -55 124 -33 0 8 -46 36 -102
63 -95 45 -110 49 -190 52 -85 4 -88 3 -114 -25z"/>
<path d="M3844 5390 c-58 -8 -90 -26 -219 -120 -131 -95 -187 -155 -236 -252
-79 -157 -88 -197 -90 -397 l-1 -176 35 -107 c43 -129 113 -268 161 -324 133
-155 427 -225 616 -147 55 22 160 94 160 109 0 22 -21 17 -70 -17 -69 -46
-100 -61 -160 -75 -168 -40 -381 16 -497 131 -55 56 -120 174 -167 304 -28 77
-48 189 -36 196 4 3 50 11 101 19 212 32 430 110 521 186 50 42 153 198 174
263 9 28 18 84 21 122 7 88 -19 157 -79 211 -70 63 -144 86 -234 74z m108 -40
c84 -24 161 -110 174 -196 14 -96 -62 -275 -162 -379 -59 -62 -157 -114 -270
-145 -43 -11 -100 -27 -125 -35 -25 -8 -78 -19 -119 -25 -40 -6 -84 -13 -98
-17 l-25 -6 6 130 c8 142 20 189 82 313 51 102 90 148 186 217 45 32 104 75
133 95 76 56 139 70 218 48z"/>
<path d="M2510 5282 c-64 -13 -86 -21 -88 -34 -4 -22 -8 -22 97 -2 203 38 336
-18 402 -171 25 -56 46 -75 55 -51 8 21 -52 132 -95 175 -89 89 -208 116 -371
83z"/>
<path d="M5465 5181 c-51 -13 -91 -39 -143 -92 -87 -90 -123 -193 -124 -357
-1 -189 69 -394 220 -648 48 -80 69 -164 58 -237 -15 -100 -127 -197 -361
-312 -82 -40 -161 -76 -175 -80 -61 -16 -130 -49 -130 -61 0 -20 10 -18 108
16 198 69 438 206 521 295 57 62 74 106 74 185 -1 92 -14 131 -87 254 -120
201 -196 425 -196 577 0 156 35 260 117 343 89 90 175 110 266 61 29 -15 49
-20 53 -14 11 18 -27 49 -79 64 -54 16 -75 17 -122 6z"/>
<path d="M2210 3137 c0 -13 -5 -28 -12 -35 -8 -8 -12 -249 -14 -909 -2 -494
-7 -1017 -11 -1163 -5 -146 -6 -268 -2 -273 3 -4 50 -10 104 -12 55 -3 106 -7
115 -10 9 -3 25 2 36 10 18 14 18 16 2 28 -16 13 -16 39 -7 358 5 189 14 367
19 394 6 28 16 108 22 178 l12 128 50 -5 c28 -3 170 -11 316 -17 203 -9 297
-10 400 -1 74 7 201 12 281 12 118 0 149 3 159 15 10 12 9 16 -4 21 -13 5 -16
25 -16 125 0 105 -5 131 -21 115 -2 -3 -259 -6 -569 -8 l-565 -3 -11 75 c-6
41 -14 209 -17 374 l-6 298 303 -7 c311 -8 772 8 809 27 17 9 18 19 14 91 -3
45 -8 94 -12 110 -6 21 -4 27 9 27 9 0 16 7 16 15 0 8 -7 15 -15 15 -9 0 -18
7 -21 15 -7 17 -34 21 -34 5 0 -14 -205 -13 -417 2 -134 9 -189 9 -255 -1 -45
-7 -206 -15 -355 -18 l-273 -6 0 27 c0 16 -5 26 -15 26 -9 0 -15 -9 -15 -23z
m1221 -47 l107 0 10 -42 c6 -24 14 -70 17 -104 7 -58 6 -61 -16 -68 -13 -4
-268 -10 -567 -13 l-543 -6 6 -311 c6 -279 18 -476 30 -497 3 -4 263 -5 578
-2 l572 6 -3 -101 -3 -101 -162 0 c-89 0 -196 -4 -237 -8 -75 -8 -359 -1 -630
15 -80 5 -148 7 -152 5 -5 -2 -8 -46 -8 -96 0 -51 -5 -120 -10 -155 -28 -170
-33 -239 -39 -522 l-6 -305 -85 0 -85 0 -3 90 c-2 50 2 221 9 380 8 171 13
601 13 1047 1 416 4 759 7 763 4 3 145 10 315 16 169 5 310 12 313 16 4 3 110
3 236 -1 127 -3 278 -6 336 -6z"/>
</g>
</svg>
